<svg width="820" height="820" viewBox="0 0 820 820" fill="none" xmlns="http://www.w3.org/2000/svg">
<path fill-rule="evenodd" clip-rule="evenodd" d="M130.536 308.043L102.06 231.072L25.1202 202.628C10.0337 197.023 0.00747847 182.641 0.00747847 166.561C0.00747847 150.482 10.0337 136.1 25.1202 130.495L102.06 102.051L130.536 25.0804C136.11 10.0261 150.492 0 166.572 0C182.683 0 197.066 10.0261 202.639 25.0804L231.115 102.051L308.055 130.495C323.142 136.1 333.136 150.482 333.136 166.561C333.136 182.641 323.142 197.023 308.055 202.628L231.115 231.072L202.639 308.043C197.065 323.097 182.683 333.123 166.572 333.123C150.492 333.123 136.11 323.097 130.536 308.043ZM148.698 166.561C156.514 170.34 162.824 176.619 166.572 184.434C170.351 176.618 176.662 170.34 184.477 166.561C176.662 162.781 170.351 156.503 166.572 148.687C162.824 156.503 156.513 162.781 148.698 166.561ZM410.01 666.249C296.873 666.249 205.008 574.385 205.008 461.25C205.008 348.116 296.873 256.252 410.01 256.252C523.179 256.252 615.012 348.116 615.012 461.25C615.012 574.385 523.179 666.249 410.01 666.249ZM410.01 589.374C480.736 589.374 538.136 531.975 538.136 461.25C538.136 390.526 480.736 333.126 410.01 333.126C339.316 333.126 281.884 390.526 281.884 461.25C281.884 531.975 339.316 589.374 410.01 589.374ZM627.82 320.318C606.616 320.318 589.383 303.085 589.383 281.881C589.383 260.676 606.616 243.443 627.82 243.443H653.446C674.682 243.443 691.884 260.676 691.884 281.881C691.884 303.085 674.682 320.318 653.446 320.318H627.82ZM6.2789 268.428C11.436 247.832 32.3207 235.307 52.9169 240.464C73.481 245.621 86.0058 266.506 80.8808 287.07C78.6066 296.167 77.3894 305.647 77.3894 315.353V315.545C76.8769 405.908 76.8769 529.285 76.8769 626.372C76.8769 690.851 129.152 743.123 193.63 743.123H626.405C690.885 743.123 743.125 690.848 743.125 626.372V315.447C743.125 259.168 702.99 210.93 647.668 200.647C568.39 186.778 489.177 179.411 409.997 179.378C404.712 179.378 399.426 179.41 394.141 179.474C372.937 179.731 355.512 162.722 355.255 141.486C354.999 120.281 372.008 102.857 393.244 102.6C398.818 102.536 404.423 102.504 410.029 102.504C493.694 102.536 577.36 110.287 661.124 124.99C661.252 124.99 661.348 125.022 661.476 125.022C753.342 141.966 820 222.043 820 315.449V626.375C820 733.327 733.325 820 626.404 820H193.629C86.7077 820 0 733.327 0 626.375C0 529.189 0 405.648 0.512505 315.195C0.544537 299.116 2.53122 283.45 6.2789 268.428Z" fill="black"/>
</svg>
